<svg width="20" height="20" viewBox="0 0 20 20" fill="none" xmlns="http://www.w3.org/2000/svg">
<g filter="url(#filter0_b_235_44)">
<path d="M3.50693 12.8L7.20068 16.4937L9.0813 15.7884L4.21224 10.9187L3.50693 12.8ZM2.06365 16.6469C1.92596 17.0141 2.0158 17.4281 2.29315 17.7056C2.48349 17.8969 2.73943 18 3.00005 18C3.11821 18 3.23736 17.9795 3.35161 17.9365L6.17193 16.879L3.12099 13.8281L2.06365 16.6469ZM6.7063 8.29375C6.46568 8.05312 6.1188 7.95312 5.78755 8.02187C5.45568 8.09412 5.18224 8.3295 5.06286 8.64781L4.59786 9.89062L10.1104 15.4031L11.3526 14.9375C11.671 14.8184 11.9063 14.545 11.9785 14.2128C12.0498 13.8809 11.9482 13.5341 11.708 13.2937L6.7063 8.29375ZM7.75005 7C7.91999 7 8.08974 6.94338 8.23036 6.82619C9.35443 5.88869 9.99974 4.51181 9.99974 3.04806V2.75C9.99974 2.33594 9.6638 2 9.27786 2C8.89193 2 8.55599 2.33594 8.55599 2.75V3.04784C8.55599 4.06534 8.10786 5.02253 7.32568 5.67378C6.95005 5.94062 6.90943 6.4125 7.17505 6.73125C7.32193 6.90937 7.53443 7 7.75005 7ZM4.00005 3.97187C4.55224 3.97187 4.97193 3.52406 4.97193 3C4.97193 2.44781 4.52443 2.02812 4.00005 2.02812C3.47568 2.02812 3.00005 2.44781 3.00005 3C3.00005 3.55219 3.44786 3.97187 4.00005 3.97187ZM17.2219 10H16.9241C15.4875 10 14.1126 10.6469 13.1751 11.7688C12.9094 12.0872 12.9524 12.5597 13.2707 12.8253C13.4094 12.9438 13.5813 13 13.7219 13C13.9368 13 14.1497 12.9082 14.2982 12.7305C14.9782 11.9469 15.9344 11.5 16.9532 11.5H17.251C17.6651 11.5 17.9729 11.1641 17.9729 10.75C17.9729 10.3359 17.6625 10 17.2219 10ZM14.1782 7.5C14.8307 6.73531 14.7835 5.99406 14.7485 5.45312C14.7182 4.98531 14.7153 4.76656 14.9624 4.4775C15.2085 4.18941 15.4242 4.15906 15.8892 4.11719C16.4283 4.06837 17.1677 4.00194 17.8217 3.23719C18.0903 2.92281 18.0542 2.44906 17.7387 2.17969C17.4253 1.91406 16.9525 1.94725 16.6812 2.26269C16.4351 2.55078 16.2194 2.58113 15.7544 2.623C15.2153 2.67181 14.4759 2.73825 13.8219 3.503C13.1694 4.26769 13.2166 5.00894 13.2516 5.54988C13.2818 6.01769 13.2847 6.23644 13.0377 6.5255C12.7926 6.81262 12.5767 6.843 12.113 6.88487C11.5739 6.93272 10.8345 6.99816 10.1814 7.76269C9.91255 8.07813 9.94693 8.55313 10.2626 8.82188C10.4032 8.94063 10.5782 9 10.7219 9C10.9338 9 11.1438 8.91112 11.2922 8.73731C11.5374 8.45019 11.7532 8.41981 12.216 8.37794C12.7844 8.33125 13.5219 8.26562 14.1782 7.5ZM16.9719 15C16.4197 15 16 15.4478 16 15.9719C16 16.5241 16.4479 16.9438 16.9719 16.9438C17.496 16.9438 17.9438 16.4959 17.9438 15.9719C17.9719 15.4469 17.5532 15 16.9719 15ZM16.9719 6C16.4197 6 16 6.44781 16 6.97188C16 7.52406 16.4479 7.94375 16.9719 7.94375C17.496 7.94375 17.9438 7.49594 17.9438 6.97188C17.9719 6.44688 17.5532 6 16.9719 6Z" fill="white" fill-opacity="0.75"/>
</g>
<defs>
<filter id="filter0_b_235_44" x="-22" y="-22" width="64.0015" height="64" filterUnits="userSpaceOnUse" color-interpolation-filters="sRGB">
<feFlood flood-opacity="0" result="BackgroundImageFix"/>
<feGaussianBlur in="BackgroundImageFix" stdDeviation="12"/>
<feComposite in2="SourceAlpha" operator="in" result="effect1_backgroundBlur_235_44"/>
<feBlend mode="normal" in="SourceGraphic" in2="effect1_backgroundBlur_235_44" result="shape"/>
</filter>
</defs>
</svg>
