<svg width="20" height="20" viewBox="0 0 20 20" fill="none" xmlns="http://www.w3.org/2000/svg">
<g clip-path="url(#clip0_235_16)">
<g filter="url(#filter0_b_235_16)">
<path d="M2 10C2 5.58125 5.58125 2 10 2C14.4187 2 18 5.58125 18 10C18 14.4187 14.4187 18 10 18C5.58125 18 2 14.4187 2 10ZM7.12813 12.1719C6.94688 11.9625 6.63125 11.9406 6.42188 12.1219C6.2125 12.3031 6.19062 12.6188 6.37187 12.8281C7.06562 13.6281 8.27813 14.5 9.97188 14.5C11.7219 14.5 12.9313 13.6281 13.6281 12.8281C13.8094 12.6188 13.7875 12.3031 13.5781 12.1219C13.3688 11.9406 13.0531 11.9625 12.8719 12.1719C12.3094 12.8188 11.3563 13.5 9.97188 13.5C8.64375 13.5 7.6875 12.8188 7.12813 12.1719ZM9.07812 9.2375C9.18125 9.20313 9.25 9.10625 9.25 9C9.25 8.44063 9.04062 7.8875 8.73125 7.475C8.425 7.06875 7.98438 6.75 7.5 6.75C7.01562 6.75 6.575 7.06875 6.26875 7.475C5.95938 7.8875 5.75 8.44063 5.75 9C5.75 9.10625 5.81875 9.20313 5.92188 9.2375C6.02188 9.27188 6.13437 9.2375 6.2 9.15L6.20401 9.14399C6.2055 9.14175 6.20673 9.14134 6.20735 9.13873V9.13873C6.21229 9.11799 6.22939 9.09537 6.24384 9.0797C6.26216 9.05983 6.29247 9.03639 6.31563 9.00938V9.00938C6.52134 8.77074 6.74975 8.54558 7.02662 8.39521C7.18771 8.30772 7.3499 8.25 7.5 8.25C7.6501 8.25 7.81229 8.30772 7.97338 8.39521C8.25025 8.54558 8.47866 8.77074 8.68437 9.00938V9.00938C8.72187 9.05313 8.75 9.0875 8.77187 9.1125C8.77767 9.12022 8.78227 9.12675 8.78641 9.13209C8.791 9.13801 8.79584 9.14377 8.8 9.15V9.15C8.86563 9.2375 8.97812 9.27188 9.07812 9.2375ZM13.8 9.15C13.8656 9.2375 13.9781 9.27188 14.0781 9.2375C14.1812 9.20313 14.25 9.10625 14.25 9C14.25 8.44063 14.0406 7.8875 13.7312 7.475C13.425 7.06875 12.9844 6.75 12.5 6.75C12.0156 6.75 11.575 7.06875 11.2688 7.475C10.9594 7.8875 10.75 8.44063 10.75 9C10.75 9.10625 10.8188 9.20313 10.9219 9.2375C11.0219 9.27188 11.1344 9.2375 11.2 9.15L11.204 9.14399C11.2055 9.14175 11.2067 9.14134 11.2074 9.13873V9.13873C11.2123 9.11799 11.2294 9.09537 11.2438 9.0797C11.2622 9.05983 11.2925 9.03639 11.3156 9.00938V9.00938C11.5213 8.77074 11.7498 8.54558 12.0266 8.39521C12.1877 8.30772 12.3499 8.25 12.5 8.25C12.6501 8.25 12.8123 8.30772 12.9734 8.39521C13.2502 8.54558 13.4787 8.77074 13.6844 9.00938V9.00938C13.7219 9.05313 13.75 9.0875 13.7719 9.1125C13.7777 9.12022 13.7823 9.12675 13.7864 9.13209C13.791 9.13801 13.7958 9.14377 13.8 9.15V9.15Z" fill="white" fill-opacity="0.75"/>
</g>
</g>
<defs>
<filter id="filter0_b_235_16" x="-22" y="-22" width="64" height="64" filterUnits="userSpaceOnUse" color-interpolation-filters="sRGB">
<feFlood flood-opacity="0" result="BackgroundImageFix"/>
<feGaussianBlur in="BackgroundImageFix" stdDeviation="12"/>
<feComposite in2="SourceAlpha" operator="in" result="effect1_backgroundBlur_235_16"/>
<feBlend mode="normal" in="SourceGraphic" in2="effect1_backgroundBlur_235_16" result="shape"/>
</filter>
<clipPath id="clip0_235_16">
<rect width="16" height="16" fill="white" transform="translate(2 2)"/>
</clipPath>
</defs>
</svg>
