<svg width="20" height="20" viewBox="0 0 20 20" fill="none" xmlns="http://www.w3.org/2000/svg">
<g filter="url(#filter0_b_235_42)">
<path d="M2 10C2 5.58125 5.58125 2 10 2C14.4187 2 18 5.58125 18 10C18 14.4187 14.4187 18 10 18C5.58125 18 2 14.4187 2 10ZM10 11.5C9.17188 11.5 8.5 12.1719 8.5 13V14C8.5 14.8281 9.17188 15.5 10 15.5C10.8281 15.5 11.5 14.8281 11.5 14V13C11.5 12.1719 10.8281 11.5 10 11.5ZM7.5125 8C6.95937 8 6.5125 8.44687 6.5125 9C6.5125 9.55313 6.95937 10 7.5125 10C8.0625 10 8.5125 9.55313 8.5125 9C8.5125 8.44687 8.0625 8 7.5125 8ZM12.5125 10C13.0625 10 13.5125 9.55313 13.5125 9C13.5125 8.44687 13.0625 8 12.5125 8C11.9594 8 11.5125 8.44687 11.5125 9C11.5125 9.55313 11.9594 10 12.5125 10ZM8.5 5.5C8.5 5.225 8.275 5 8 5C7.81875 5 7.6375 5.01187 7.4625 5.03531C6.58125 5.15312 5.78437 5.55 5.15937 6.13438C4.95687 6.32188 4.94625 6.64062 5.13438 6.84062C5.32188 7.04375 5.64063 7.05312 5.84063 6.86562C6.325 6.4125 6.93125 6.11562 7.56563 6.02812C7.725 6.00937 7.8625 6 8 6C8.275 6 8.5 5.775 8.5 5.5ZM14.1594 6.86562C14.3594 7.05312 14.6781 7.04375 14.8656 6.84062C15.0531 6.64062 15.0437 6.32188 14.8406 6.13438C14.2156 5.55 13.4188 5.15312 12.5375 5.03531C12.3625 5.01187 12.1813 5 12 5C11.725 5 11.5 5.225 11.5 5.5C11.5 5.775 11.725 6 12 6C12.1375 6 12.275 6.00937 12.4062 6.02812C13.0688 6.11562 13.675 6.4125 14.1594 6.86562Z" fill="white" fill-opacity="0.75"/>
</g>
<defs>
<filter id="filter0_b_235_42" x="-22" y="-22" width="64" height="64" filterUnits="userSpaceOnUse" color-interpolation-filters="sRGB">
<feFlood flood-opacity="0" result="BackgroundImageFix"/>
<feGaussianBlur in="BackgroundImageFix" stdDeviation="12"/>
<feComposite in2="SourceAlpha" operator="in" result="effect1_backgroundBlur_235_42"/>
<feBlend mode="normal" in="SourceGraphic" in2="effect1_backgroundBlur_235_42" result="shape"/>
</filter>
</defs>
</svg>
